<svg width="114" height="114" viewBox="0 0 114 114" fill="none" xmlns="http://www.w3.org/2000/svg">
<path d="M0.625 0.625V113.375H113.375V0.625H0.625ZM10.875 10.875H103.125V103.125H10.875V10.875ZM31.375 26.25V54.4875V87.7C61.7663 87.7 67.8474 88.11 73.5361 86.4187C76.8674 85.3937 85.9883 82.1145 85.9883 70.5833C85.9883 65.4583 84.452 56.7902 74.407 54.6377V54.4875H72.5151C77.6401 52.1813 80.8633 47.8311 80.8633 41.4248C80.8633 39.7848 81.3237 26.25 63.3862 26.25H31.375ZM41.625 36.5H62.125C69.8586 36.5 70.6133 40.8728 70.6133 44.1375C70.6133 52.1017 62.2788 51.875 62.125 51.875H41.625V36.5ZM41.625 62.125H66.0188C75.5564 62.125 75.7383 68.1544 75.7383 69.7124C75.7383 77.7074 67.4786 77.5 66.4792 77.5H41.625V62.125Z" fill="url(#paint0_linear_311_524)"/>
<defs>
<linearGradient id="paint0_linear_311_524" x1="57" y1="0.625" x2="57" y2="113.375" gradientUnits="userSpaceOnUse">
<stop stop-color="#F9E650"/>
<stop offset="0.630208" stop-color="#F1C72A"/>
<stop offset="1" stop-color="#E8A702"/>
</linearGradient>
</defs>
</svg>
