<svg width="109" height="109" viewBox="0 0 109 109" fill="none" xmlns="http://www.w3.org/2000/svg">
<path d="M54.4923 0C24.4251 0 0 24.4251 0 54.4923C0 84.5595 24.4251 108.985 54.4923 108.985C84.5595 108.985 108.985 84.5595 108.985 54.4923C108.985 24.4251 84.5595 0 54.4923 0ZM54.4923 4.73846C81.9987 4.73846 104.246 26.986 104.246 54.4923C104.246 81.9987 81.9987 104.246 54.4923 104.246C26.9859 104.246 4.73846 81.9987 4.73846 54.4923C4.73846 26.986 26.9859 4.73846 54.4923 4.73846ZM54.4923 14.2154C45.3471 14.2154 37.9077 21.2478 37.9077 29.8884C37.9077 38.2897 45.6892 47.8197 52.9699 53.937C53.4106 54.3066 53.9498 54.4877 54.4923 54.4877C55.0349 54.4877 55.5764 54.3044 56.0147 53.9324C63.2954 47.815 71.0769 38.2897 71.0769 29.8884C71.0769 21.2502 63.6352 14.2178 54.4923 14.2154ZM31.818 54.5108C28.1079 54.6073 24.6575 55.3149 21.9015 56.8893C18.3737 58.9031 15.844 62.2301 14.766 66.2459C13.6217 70.5105 14.2774 75.2074 16.5661 79.1332C19.7361 84.573 25.4007 87.6569 31.0869 87.6569C33.6765 87.6569 36.272 87.0176 38.6388 85.6671C45.9977 81.457 50.4086 69.9386 52.0861 60.5588C52.2898 59.424 51.6465 58.3029 50.559 57.912C44.9143 55.8833 38.0016 54.35 31.818 54.5108ZM77.1712 54.5108C70.9881 54.35 64.0764 55.8833 58.4302 57.912C57.3428 58.3029 56.6948 59.424 56.8986 60.5588C58.5736 69.9386 62.987 81.4617 70.3458 85.6671C72.7103 87.0176 75.3058 87.6569 77.8977 87.6569C83.5815 87.6569 89.246 84.5754 92.4231 79.1332C94.7118 75.2074 95.3652 70.5129 94.2232 66.2459C93.1476 62.2277 90.6109 58.9055 87.0831 56.8893C84.3271 55.3149 80.8811 54.6073 77.1712 54.5108Z" fill="url(#paint0_linear_313_543)"/>
<defs>
<linearGradient id="paint0_linear_313_543" x1="54.4923" y1="0" x2="54.4923" y2="108.985" gradientUnits="userSpaceOnUse">
<stop stop-color="#F9E650"/>
<stop offset="0.640625" stop-color="#F0C628"/>
<stop offset="1" stop-color="#E8A702"/>
</linearGradient>
</defs>
</svg>
