<svg width="65" height="101" viewBox="0 0 65 101" fill="none" xmlns="http://www.w3.org/2000/svg">
<path d="M15.2171 100.833C6.84398 100.833 0.0562646 93.6513 0.0562646 84.7917C0.0562646 75.9321 6.84398 68.75 15.2171 68.75H26.0463C28.4395 68.75 30.3779 70.801 30.3779 73.3333V84.7917C30.3779 93.6513 23.5902 100.833 15.2171 100.833ZM48.7312 34.375C44.9975 34.375 41.4167 35.9444 38.7766 38.7379C36.1365 41.5314 34.6533 45.3202 34.6533 49.2708C34.6533 53.2215 36.1365 57.0103 38.7766 59.8038C41.4167 62.5973 44.9975 64.1667 48.7312 64.1667C52.4649 64.1667 56.0457 62.5973 58.6858 59.8038C61.3259 57.0103 62.8091 53.2215 62.8091 49.2708C62.8091 45.3202 61.3259 41.5314 58.6858 38.7379C56.0457 35.9444 52.4649 34.375 48.7312 34.375ZM50.897 29.7917C58.8153 29.7917 65.2067 22.8731 64.9685 14.4375C64.7367 6.28604 58.0161 0 50.3058 0H38.985C36.5917 0 34.6533 2.05104 34.6533 4.58333V25.2083C34.6533 27.7406 36.5917 29.7917 38.985 29.7917H50.897ZM14.0779 0C6.15958 0 -0.231791 6.91854 0.006451 15.3542C0.238195 23.5056 6.95878 29.7917 14.6691 29.7917H25.99C28.3832 29.7917 30.3216 27.7406 30.3216 25.2083V4.58333C30.3216 2.05104 28.3832 0 25.99 0H14.0779ZM14.0779 34.375C6.15958 34.375 -0.231791 41.2935 0.006451 49.7292C0.238195 57.8806 6.95878 64.1667 14.6691 64.1667H25.99C28.3832 64.1667 30.3216 62.1156 30.3216 59.5833V38.9583C30.3216 36.426 28.3832 34.375 25.99 34.375H14.0779Z" fill="url(#paint0_linear_311_403)"/>
<defs>
<linearGradient id="paint0_linear_311_403" x1="32.4875" y1="0" x2="32.4875" y2="100.833" gradientUnits="userSpaceOnUse">
<stop stop-color="#F9E650"/>
<stop offset="0.619792" stop-color="#F1C729"/>
<stop offset="1" stop-color="#E8A702"/>
</linearGradient>
</defs>
</svg>
