<svg width="109" height="109" viewBox="0 0 109 109" fill="none" xmlns="http://www.w3.org/2000/svg">
<path d="M106.946 49.6453L59.3546 2.0578C58.7031 1.40546 57.9295 0.887938 57.0778 0.534842C56.2262 0.181746 55.3133 0 54.3914 0C53.4695 0 52.5566 0.181746 51.7049 0.534842C50.8533 0.887938 50.0797 1.40546 49.4282 2.0578L39.5445 11.9414L52.0782 24.475C53.5518 23.9745 55.136 23.8964 56.6516 24.2494C58.1673 24.6024 59.5539 25.3725 60.6547 26.4726C61.7613 27.5808 62.5342 28.9777 62.8851 30.504C63.236 32.0303 63.1508 33.6245 62.6393 35.1047L74.7187 47.1851C76.1987 46.6708 77.7937 46.5841 79.3207 46.9349C80.8478 47.2857 82.245 48.0598 83.3521 49.1685C84.1277 49.944 84.743 50.8646 85.1628 51.8779C85.5826 52.8912 85.7986 53.9773 85.7986 55.0741C85.7986 56.1709 85.5826 57.2569 85.1628 58.2702C84.743 59.2835 84.1277 60.2042 83.3521 60.9797C81.785 62.5461 79.6599 63.4261 77.4441 63.4261C75.2283 63.4261 73.1032 62.5461 71.536 60.9797C70.3695 59.8139 69.5744 58.3288 69.251 56.7117C68.9276 55.0946 69.0903 53.4179 69.7187 51.8932L58.4495 40.6277V70.2796C59.639 70.8672 60.6713 71.7297 61.4611 72.7956C62.2508 73.8616 62.7752 75.1004 62.9909 76.4094C63.2065 77.7184 63.1072 79.0599 62.7012 80.3229C62.2951 81.5859 61.594 82.734 60.6559 83.672C59.8804 84.4477 58.9597 85.0629 57.9464 85.4827C56.9331 85.9025 55.847 86.1185 54.7502 86.1185C53.6534 86.1185 52.5673 85.9025 51.554 85.4827C50.5407 85.0629 49.6201 84.4477 48.8446 83.672C48.0688 82.8965 47.4533 81.9758 47.0334 80.9624C46.6136 79.949 46.3974 78.8628 46.3974 77.7658C46.3974 76.6689 46.6136 75.5827 47.0334 74.5693C47.4533 73.5559 48.0688 72.6352 48.8446 71.8597C49.6269 71.0754 50.5577 70.4548 51.5824 70.0341V40.1093C50.5576 39.6909 49.6267 39.0718 48.8446 38.2885C47.6733 37.1157 46.8769 35.6212 46.5567 33.9949C46.2365 32.3686 46.4069 30.6839 47.0462 29.1546L34.6881 16.7966L2.05715 49.4223C1.40497 50.0742 0.887617 50.8483 0.534646 51.7001C0.181675 52.552 0 53.4651 0 54.3873C0 55.3094 0.181675 56.2225 0.534646 57.0744C0.887617 57.9263 1.40497 58.7003 2.05715 59.3522L49.65 106.946C50.9668 108.261 52.7519 109 54.6132 109C56.4745 109 58.2597 108.261 59.5764 106.946L106.946 59.5752C108.261 58.2575 109 56.4719 109 54.6103C109 52.7486 108.261 50.963 106.946 49.6453Z" fill="url(#paint0_linear_67_32)"/>
<defs>
<linearGradient id="paint0_linear_67_32" x1="54.5" y1="0" x2="54.5" y2="109" gradientUnits="userSpaceOnUse">
<stop stop-color="#F9E650"/>
<stop offset="0.640625" stop-color="#F1C72A"/>
<stop offset="1" stop-color="#E8A702"/>
</linearGradient>
</defs>
</svg>
