<svg width="101" height="98" viewBox="0 0 101 98" fill="none" xmlns="http://www.w3.org/2000/svg">
<path d="M50.5 0C22.6156 0 0 22.4944 0 50.2387C0 72.4359 14.4682 91.267 34.5378 97.9111C37.0586 98.3758 37.875 96.8184 37.875 95.4955V86.1427C23.8276 89.1821 20.9028 80.2145 20.9028 80.2145C18.605 74.4078 15.2931 72.8629 15.2931 72.8629C10.7102 69.7439 15.6424 69.8109 15.6424 69.8109C20.7134 70.1626 23.3815 74.9897 23.3815 74.9897C27.8844 82.6678 35.1943 80.449 38.077 79.1637C38.5273 75.9191 39.8361 73.7002 41.2837 72.4484C30.0685 71.1715 18.2768 66.8636 18.2768 47.6179C18.2768 42.1294 20.2505 37.6497 23.4783 34.133C22.9565 32.8645 21.2268 27.7527 23.9707 20.8365C23.9707 20.8365 28.2127 19.4884 37.8624 25.986C41.8897 24.8724 46.2075 24.3155 50.5 24.2946C54.7925 24.3155 59.1145 24.8724 63.1502 25.986C72.7915 19.4884 77.0251 20.8365 77.0251 20.8365C79.7732 27.7569 78.0435 32.8687 77.5217 34.133C80.7621 37.6497 82.719 42.1336 82.719 47.6179C82.719 66.9138 70.9062 71.1632 59.6615 72.4066C61.4711 73.964 63.125 77.0202 63.125 81.7091V95.4955C63.125 96.831 63.933 98.4009 66.4959 97.9069C86.5486 91.2545 101 72.4275 101 50.2387C101 22.4944 78.3886 0 50.5 0Z" fill="url(#paint0_linear_67_33)"/>
<defs>
<linearGradient id="paint0_linear_67_33" x1="50.5" y1="0" x2="50.5" y2="98" gradientUnits="userSpaceOnUse">
<stop stop-color="#F9E650"/>
<stop offset="0.598958" stop-color="#F1C729"/>
<stop offset="1" stop-color="#E8A702"/>
</linearGradient>
</defs>
</svg>
