<svg width="89" height="100" viewBox="0 0 89 100" fill="none" xmlns="http://www.w3.org/2000/svg">
<path d="M88.153 0.700315C87.7479 0.25313 87.1657 0 86.5582 0H2.16175C1.55422 0 0.972003 0.25313 0.566981 0.700315C0.153513 1.1475 -0.048998 1.74658 0.0100812 2.35408L7.61268 87.5138C7.68863 88.4081 8.31303 89.1506 9.17371 89.4038L43.7609 99.2756C43.9465 99.3347 44.149 99.36 44.3516 99.36C44.5541 99.36 44.7481 99.3347 44.9422 99.2756L79.5547 89.4038C80.4154 89.1506 81.0314 88.4081 81.1158 87.5138L88.7099 2.35408C88.769 1.74658 88.5664 1.1475 88.153 0.700315ZM69.9523 30.0628H29.3151L30.2855 41.0569H68.9735L66.0708 73.5497L44.3431 80.1141L44.1322 80.0466L22.6575 73.5412L21.4847 60.3028H32.0068L32.4624 65.4412L44.4697 67.9556L56.2575 65.4412L57.5147 51.5362H20.6999L17.8394 19.5581H70.8889L69.9523 30.0628Z" fill="url(#paint0_linear_373_34)"/>
<defs>
<linearGradient id="paint0_linear_373_34" x1="44.36" y1="0" x2="44.36" y2="99.36" gradientUnits="userSpaceOnUse">
<stop stop-color="#F9E650"/>
<stop offset="0.65625" stop-color="#F1C72A"/>
<stop offset="1" stop-color="#E8A702"/>
</linearGradient>
</defs>
</svg>
