<svg width="109" height="111" viewBox="0 0 109 111" fill="none" xmlns="http://www.w3.org/2000/svg">
<path d="M9.89308 0C4.42715 0 0 4.49238 0 10.0388V100.388C0 105.935 4.42715 110.427 9.89308 110.427H98.9308C104.397 110.427 108.824 105.935 108.824 100.388V10.0388C108.824 4.49238 104.397 0 98.9308 0H9.89308ZM77.4636 26.3421C80.5404 26.3421 82.642 28.3323 82.642 31.0478C82.642 33.7633 80.5404 35.7535 77.4636 35.7535C74.4215 35.7535 72.2948 33.7633 72.2948 31.0478C72.2948 28.3323 74.4215 26.3421 77.4636 26.3421ZM38.5482 29.8812H48.3544L65.6962 79.3989H56.3345L52.2092 66.7426H34.2587L30.056 79.3989H21.2353L38.5482 29.8812ZM42.9731 39.3122L36.2875 59.733H50.1803L43.5527 39.3122H42.9731ZM73.3093 41.8612H81.6566V79.3989H73.3093V41.8612Z" fill="url(#paint0_linear_313_539)"/>
<defs>
<linearGradient id="paint0_linear_313_539" x1="54.4119" y1="0" x2="54.4119" y2="110.427" gradientUnits="userSpaceOnUse">
<stop stop-color="#F9E650"/>
<stop offset="0.640625" stop-color="#F1C72A"/>
<stop offset="1" stop-color="#E8A702"/>
</linearGradient>
</defs>
</svg>
