<svg width="108" height="108" viewBox="0 0 108 108" fill="none" xmlns="http://www.w3.org/2000/svg">
<path d="M98.1496 4.702C97.7392 4.25488 97.1625 4 96.5555 4H12.16C11.553 4 10.9763 4.25488 10.5659 4.702C10.1555 5.14912 9.95464 5.7496 10.0086 6.35224L17.6118 91.5146C17.6918 92.4045 18.3117 93.154 19.1714 93.4002L53.753 103.278C53.9452 103.332 54.1461 103.36 54.3448 103.36C54.5435 103.36 54.7444 103.332 54.9366 103.278L89.5485 93.4002C90.4082 93.154 91.0281 92.4045 91.108 91.5146L98.7069 6.35224C98.7609 5.7496 98.5578 5.14912 98.1496 4.702ZM26.2778 62.3286L41.3978 66.5234V23.44H50.0378V79.6L26.2778 73.0098V62.3286ZM82.5544 47.2L80.2778 73.66L58.6778 79.6V69.6618L73.2578 65.655L73.7978 57.555L58.6778 60.16V23.44H84.5978L83.8526 32.08H67.3178V49.36L82.5544 47.2Z" fill="url(#paint0_linear_332_33)"/>
<defs>
<linearGradient id="paint0_linear_332_33" x1="54.3577" y1="4" x2="54.3577" y2="103.36" gradientUnits="userSpaceOnUse">
<stop stop-color="#F9E650"/>
<stop offset="0.651042" stop-color="#F1C72A"/>
<stop offset="1" stop-color="#E8A702"/>
</linearGradient>
</defs>
</svg>
