<svg width="110" height="110" viewBox="0 0 110 110" fill="none" xmlns="http://www.w3.org/2000/svg">
<path d="M5.2381 0C2.35714 0 0 2.35714 0 5.2381V104.762C0 107.643 2.35714 110 5.2381 110H104.762C107.643 110 110 107.643 110 104.762V5.2381C110 2.35714 107.643 0 104.762 0H5.2381ZM38.1859 26.1905C43.3978 26.1905 47.8254 27.4484 50.785 30.3032C53.4564 32.9746 54.867 37.0878 54.867 42.0378C54.867 47.2235 53.6135 50.7334 51.4397 53.5882C48.4278 57.7786 43.1378 59.8698 38.1092 59.8698C37.0354 59.8698 36.1977 59.8716 35.2548 59.7931V83.8095H28.8095V27.2903C31.4024 26.6093 34.4145 26.1905 38.1859 26.1905ZM39.2346 30.4874C37.7155 30.4874 36.4561 30.6449 35.618 30.9068V53.4552C36.3775 53.5337 37.1377 53.6137 38.2115 53.6137C44.4972 53.6137 48.7644 49.4216 48.7644 41.4597C48.7644 35.6716 46.4369 30.4874 39.2346 30.4874ZM72.5763 41.9048C75.9025 41.9048 78.3103 42.9282 80.0651 44.002L78.3105 48.8974C76.6605 47.7974 74.931 47.0406 72.6786 47.0406C69.1167 47.0406 67.2819 49.5503 67.2819 52.248C67.2819 54.9456 68.3301 56.543 72.4944 59.2406C77.3658 62.2787 81.1905 66.0501 81.1905 71.6811C81.1905 79.8525 75.4558 83.8095 68.4891 83.8095C65.451 83.8095 62.0714 82.8918 60.2381 81.4514L61.8903 76.5816C63.3832 77.4982 65.9757 78.6737 68.6733 78.6737C72.4185 78.6737 74.8526 76.3952 74.8526 72.7809C74.8526 69.6642 73.725 67.4935 69.4559 64.7959C63.9821 61.3387 61.0259 57.8038 61.0259 53.1943C61.0259 46.5419 66.0548 41.9048 72.5763 41.9048Z" fill="url(#paint0_linear_311_408)"/>
<defs>
<linearGradient id="paint0_linear_311_408" x1="55" y1="0" x2="55" y2="110" gradientUnits="userSpaceOnUse">
<stop stop-color="#F9E650"/>
<stop offset="0.619792" stop-color="#F0C527"/>
<stop offset="1" stop-color="#E8A702"/>
</linearGradient>
</defs>
</svg>
