<svg width="116" height="116" viewBox="0 0 116 116" fill="none" xmlns="http://www.w3.org/2000/svg">
<path fill-rule="evenodd" clip-rule="evenodd" d="M80.1669 9.24374C78.358 9.18292 76.4646 9.49829 74.5663 10.1137C70.7696 11.3447 66.791 13.7434 62.708 17.0647C61.1079 18.3663 59.4932 19.8542 57.8731 21.4328C56.2888 19.8942 54.7073 18.4463 53.1425 17.1734C49.0628 13.8548 45.095 11.4552 41.3069 10.227C37.5188 8.9989 33.7496 8.96084 30.6539 10.7481C27.5583 12.5354 25.7071 15.8163 24.8766 19.7109C24.0461 23.6056 24.1376 28.2437 24.9717 33.4361C25.2615 35.2397 25.6747 37.1318 26.1453 39.0594C24.3765 39.5954 22.6587 40.1591 21.0658 40.7812C16.2585 42.6588 12.2808 44.9051 9.38425 47.5781C6.48767 50.2511 4.61737 53.4953 4.61737 57.0575C4.61737 60.6197 6.48767 63.8594 9.38425 66.5323C12.2808 69.2053 16.2585 71.4561 21.0658 73.3337C22.7691 73.999 24.6132 74.598 26.5169 75.1644C25.8321 77.723 25.2773 80.2058 24.8992 82.5594C24.0644 87.756 23.9763 92.3946 24.8086 96.2981C25.641 100.202 27.4931 103.501 30.6041 105.297C33.715 107.093 37.5011 107.049 41.2978 105.818C45.0946 104.587 49.0686 102.193 53.1516 98.8719C54.737 97.5822 56.3407 96.1111 57.9457 94.5491C59.5591 96.1205 61.1692 97.5985 62.7624 98.8945C66.8421 102.213 70.8144 104.608 74.6025 105.836C78.3906 107.065 82.1598 107.103 85.2555 105.315C88.3511 103.528 90.1978 100.247 91.0283 96.3525C91.8588 92.4578 91.7673 87.8243 90.9332 82.6319C90.554 80.2719 89.9989 77.7808 89.311 75.2142C91.2776 74.6341 93.1799 74.0189 94.9342 73.3337C99.7415 71.4561 103.719 69.2053 106.616 66.5323C109.512 63.8594 111.383 60.6197 111.383 57.0575C111.383 53.4953 109.512 50.2511 106.616 47.5781C103.719 44.9051 99.7415 42.6588 94.9342 40.7812C93.3185 40.1502 91.5743 39.5792 89.7777 39.0367C90.2521 37.0973 90.6734 35.1916 90.9649 33.3772C91.7997 28.1806 91.8879 23.5374 91.0555 19.6339C90.2232 15.7304 88.3664 12.4355 85.2555 10.6394C83.7 9.74132 81.9758 9.30457 80.1669 9.24374ZM79.9539 13.9653C81.089 13.9963 82.0574 14.2665 82.8857 14.7447C84.5423 15.7011 85.7668 17.5626 86.42 20.6262C87.0733 23.6899 87.0507 27.8292 86.2796 32.6295C86.0155 34.2731 85.6322 36.015 85.1966 37.7997C80.451 36.6576 75.251 35.8101 69.7088 35.312C66.9265 31.4576 64.0678 27.9462 61.1855 24.8312C62.71 23.3431 64.2247 21.9512 65.7032 20.7486C69.4748 17.6806 73.0455 15.5929 76.0253 14.6269C77.5153 14.1438 78.8188 13.9343 79.9539 13.9653ZM35.9283 13.9789C37.07 13.947 38.3763 14.156 39.8705 14.6405C42.8589 15.6093 46.4359 17.696 50.2108 20.7667C51.6596 21.9452 53.1403 23.3105 54.6333 24.7633C51.7297 27.9037 48.8473 31.4456 46.0466 35.3347C40.5278 35.8418 35.349 36.6939 30.6267 37.8405C30.1944 36.0656 29.811 34.3327 29.5483 32.6975C28.7765 27.893 28.7572 23.7531 29.4124 20.6806C30.0675 17.6081 31.302 15.7326 32.9739 14.7673C33.8099 14.2847 34.7867 14.0108 35.9283 13.9789ZM57.9457 28.1708C59.8355 30.2274 61.7258 32.478 63.6007 34.8997C61.7585 34.8229 59.8938 34.7773 58 34.7773C56.0685 34.7773 54.1683 34.8243 52.2906 34.9042C54.1659 32.4807 56.0553 30.229 57.9457 28.1708ZM58 39.4627C61.155 39.4627 64.23 39.5923 67.2211 39.8116C69.2792 42.7676 71.2905 45.9036 73.2069 49.223C74.8908 52.1396 76.4146 55.0517 77.8016 57.9275C76.4 60.8415 74.8506 63.793 73.1435 66.7498C71.6407 69.3527 70.0714 71.8248 68.4763 74.2083C65.0976 74.4907 61.5967 74.6478 58 74.6478C54.3167 74.6478 50.7372 74.4813 47.2836 74.1856C45.715 71.8364 44.1722 69.4017 42.6935 66.8405C40.9902 63.8904 39.4483 60.9443 38.0489 58.0362C39.4542 55.1118 41.003 52.1494 42.7161 49.1822C44.6225 45.8803 46.6279 42.7624 48.6747 39.8206C51.698 39.5964 54.8088 39.4627 58 39.4627ZM73.1933 40.3916C77.0178 40.8687 80.6086 41.5313 83.9505 42.3264C82.9589 45.5771 81.7375 48.9724 80.2575 52.4764C79.2966 50.6241 78.3014 48.7654 77.2261 46.903C75.923 44.6459 74.5658 42.4941 73.1933 40.3916ZM42.5575 40.4278C41.214 42.491 39.892 44.601 38.6153 46.8123C37.5262 48.6987 36.5104 50.5823 35.5386 52.4583C34.0715 48.9754 32.8574 45.5993 31.8728 42.3672C35.1898 41.5706 38.7597 40.9104 42.5575 40.4278ZM88.5406 43.5589C90.1853 44.0565 91.7736 44.5758 93.2305 45.1448C97.662 46.8757 101.167 48.9253 103.439 51.0219C105.711 53.1184 106.697 55.1178 106.697 57.0575C106.697 58.9971 105.711 60.9966 103.439 63.0931C101.167 65.1897 97.662 67.2393 93.2305 68.9701C91.6115 69.6025 89.8326 70.1759 87.9833 70.7192C86.6641 66.6388 84.9802 62.3819 82.9763 58.0362C85.2804 53.047 87.1417 48.1824 88.5406 43.5589ZM27.3824 43.5816C28.7652 48.1589 30.6027 52.9751 32.8742 57.9139C30.8571 62.2849 29.1649 66.566 27.84 70.6694C26.0559 70.1404 24.3373 69.5825 22.7696 68.9701C18.338 67.2393 14.8326 65.1897 12.5607 63.0931C10.2887 60.9965 9.30268 58.9971 9.30268 57.0575C9.30268 55.1178 10.2887 53.1184 12.5607 51.0219C14.8326 48.9253 18.338 46.8757 22.7696 45.1448C24.2041 44.5846 25.7657 44.0727 27.3824 43.5816ZM58 46.4C51.621 46.4 46.4 51.621 46.4 58C46.4 64.379 51.621 69.6 58 69.6C64.379 69.6 69.6 64.379 69.6 58C69.6 51.621 64.379 46.4 58 46.4ZM35.593 63.4873C36.569 65.3726 37.5841 67.2644 38.6788 69.1605C39.5353 70.6439 40.41 72.0879 41.2978 73.5059C38.1822 73.0739 35.2205 72.5269 32.4392 71.8792C33.3237 69.1704 34.3818 66.3585 35.593 63.4873ZM80.3164 63.4873C81.5324 66.3653 82.5911 69.1817 83.4792 71.8973C80.6892 72.5443 77.7184 73.0894 74.5935 73.5195C75.493 72.0842 76.3813 70.6221 77.2488 69.1197C78.3354 67.2376 79.3465 65.3588 80.3164 63.4873ZM31.1025 76.3833C35.3013 77.378 39.8523 78.142 44.6782 78.6398C47.8996 83.2993 51.2557 87.486 54.6333 91.1461C53.123 92.6187 51.626 94.0008 50.161 95.1925C46.3893 98.2605 42.8141 100.344 39.8342 101.31C36.8544 102.276 34.6305 102.148 32.9739 101.192C31.3173 100.235 30.0974 98.3739 29.4441 95.3103C28.7908 92.2467 28.8089 88.1119 29.58 83.3116C29.9299 81.1339 30.4527 78.802 31.1025 76.3833ZM84.8205 76.4014C85.4758 78.8349 86.0001 81.1753 86.3521 83.3659C87.1239 88.1705 87.1431 92.3103 86.488 95.3828C85.8328 98.4553 84.6074 100.335 82.9355 101.301C81.2636 102.266 79.0183 102.392 76.0299 101.423C73.0415 100.454 69.4645 98.3674 65.6896 95.2967C64.214 94.0964 62.7067 92.7031 61.1855 91.2186C64.5857 87.5442 67.9655 83.3362 71.2086 78.6489C76.0466 78.1544 80.6103 77.3949 84.8205 76.4014ZM50.7319 79.1156C53.114 79.2454 55.5275 79.3331 58 79.3331C60.3908 79.3331 62.726 79.2507 65.0325 79.1292C62.6747 82.3103 60.2714 85.2023 57.8777 87.8066C55.4854 85.1968 53.0866 82.2996 50.7319 79.1156Z" fill="url(#paint0_linear_313_540)"/>
<defs>
<linearGradient id="paint0_linear_313_540" x1="58" y1="9.23633" x2="58" y2="106.714" gradientUnits="userSpaceOnUse">
<stop stop-color="#F9E650"/>
<stop offset="0.625" stop-color="#F1C729"/>
<stop offset="1" stop-color="#E8A702"/>
</linearGradient>
</defs>
</svg>
