<svg width="120" height="90" viewBox="0 0 120 90" fill="none" xmlns="http://www.w3.org/2000/svg">
<path d="M103.302 51.6805C99.1061 51.7042 95.473 52.7125 92.4258 54.2137C91.3007 51.9856 90.1756 50.0388 89.9883 48.585C89.7774 46.8964 89.5195 45.8642 89.7774 43.8475C90.035 41.8303 91.2069 38.9691 91.2069 38.7346C91.1833 38.5235 90.9489 37.4916 88.5348 37.4681C86.1208 37.4447 84.0344 37.9372 83.8 38.5704C83.5657 39.2036 83.0969 40.6577 82.7922 42.1587C82.3702 44.3632 77.9636 52.173 75.4556 56.2773C74.6352 54.6825 73.932 53.2753 73.7911 52.1493C73.5804 50.461 73.3223 49.4288 73.5804 47.4121C73.8382 45.3949 75.0102 42.5339 75.0102 42.2994C74.9868 42.0883 74.7524 41.0564 72.3383 41.0329C69.9238 41.0095 67.838 41.502 67.6036 42.1352C67.3692 42.7685 67.1113 44.2694 66.5957 45.7235C66.1032 47.1776 60.2433 60.2174 58.7197 63.618C57.9462 65.3535 57.2667 66.7373 56.7743 67.6754C56.282 68.6135 56.7508 67.7457 56.7039 67.8395C56.282 68.6369 56.0476 69.0825 56.0476 69.0825V69.1062C55.7195 69.6925 55.3679 70.2552 55.2036 70.2552C55.0864 70.2552 54.852 68.6838 55.2505 66.5264C56.1177 61.9998 58.2273 54.9407 58.2041 54.6827C58.2041 54.5655 58.6023 53.3222 56.8443 52.6892C55.1333 52.056 54.5241 53.1114 54.3832 53.1114C54.2425 53.1114 54.1254 53.4866 54.1254 53.4866C54.1254 53.4866 56.024 45.5364 50.4922 45.5364C47.0232 45.5364 42.2415 49.3123 39.8741 52.7598C38.374 53.5807 35.1862 55.316 31.8109 57.169C30.5217 57.8725 29.1857 58.623 27.9199 59.3032L27.6623 59.0213C20.9586 51.8682 8.55911 46.8023 9.07478 37.1867C9.26229 33.6922 10.4811 24.4752 32.8896 13.3117C51.2428 4.16508 65.9393 6.67454 68.494 12.2563C72.1272 20.2303 60.6418 35.0525 41.5622 37.1867C34.296 38.0075 30.4751 35.1932 29.5143 34.1378C28.5064 33.0355 28.3658 32.9886 27.9907 33.1997C27.3813 33.528 27.7563 34.5131 27.9907 35.0994C28.5533 36.5769 30.8972 39.2036 34.882 40.517C38.3742 41.6662 46.9064 42.2994 57.2198 38.3124C68.7755 33.8329 77.7998 21.4029 75.1511 11.0133C72.4555 0.436081 54.9228 -3.03494 38.351 2.85172C28.4827 6.36965 17.7943 11.8576 10.1061 19.0576C0.964694 27.5945 -0.488559 35.0525 0.120869 38.1482C2.2541 49.1945 17.4661 56.3946 23.5604 61.7183C23.2557 61.8823 22.9744 62.0464 22.7166 62.1874C19.6695 63.6881 8.06688 69.7627 5.16037 76.1885C1.87884 83.4589 5.67604 88.6891 8.20751 89.3927C16.0363 91.5738 24.0526 87.6572 28.389 81.2077C32.7016 74.7581 32.1862 66.3855 30.1938 62.5626L30.1233 62.4219L32.5141 61.0148C34.0613 60.1001 35.5849 59.2558 36.9207 58.5285C36.1709 60.5689 35.6315 62.9846 35.3505 66.5025C35.0224 70.6304 36.71 75.9774 38.9368 78.0882C39.9212 79.0026 41.0932 79.0263 41.8198 79.0263C44.3982 79.0263 45.5701 76.8919 46.8593 74.3357C48.4532 71.2165 49.8596 67.6048 49.8596 67.6048C49.8596 67.6048 48.1016 77.3846 52.9067 77.3846C54.6647 77.3846 56.4227 75.1097 57.2196 73.937V73.9605C57.2196 73.9605 57.2665 73.8901 57.3602 73.726C57.4586 73.5805 57.5524 73.4319 57.6415 73.2806V73.2337C58.3447 72.0141 59.9152 69.2233 62.2591 64.6031C65.2826 58.646 68.1893 51.188 68.1893 51.188C68.1893 51.188 68.4706 53.0173 69.3379 56.0193C69.8533 57.802 70.9784 59.7483 71.8456 61.648C71.1425 62.633 70.7206 63.1961 70.7206 63.1961L70.744 63.2196C70.1817 63.9701 69.5486 64.7677 68.8925 65.5648C66.5017 68.4261 63.642 71.6863 63.267 72.6244C62.8217 73.7264 62.9154 74.5473 63.7827 75.2042C64.4156 75.6733 65.5406 75.7668 66.7361 75.6733C68.8925 75.5323 70.3926 74.9931 71.1427 74.6646C72.3147 74.2424 73.6507 73.6092 74.9399 72.6711C77.2839 70.9358 78.7137 68.4732 78.573 65.1898C78.5027 63.384 77.9167 61.6015 77.1901 59.9129C77.4011 59.6081 77.6122 59.3029 77.823 58.9748C81.5264 53.557 84.386 47.6002 84.386 47.6002C84.386 47.6002 84.6673 49.4295 85.5346 52.4315C85.9797 53.9559 86.8706 55.6213 87.6676 57.263C84.1985 60.1008 82.0187 63.3842 81.2686 65.5419C79.8857 69.5288 80.9639 71.3347 83.0031 71.7569C83.917 71.9445 85.2299 71.5223 86.2141 71.1002C87.433 70.7015 88.9096 70.0211 90.2694 69.0129C92.6133 67.2774 94.8635 64.8617 94.7463 61.6018C94.676 60.1008 94.2775 58.6233 93.7384 57.2161C96.6918 55.9966 100.512 55.293 105.364 55.8793C115.795 57.0988 117.858 63.6187 117.459 66.3393C117.061 69.06 114.881 70.5608 114.154 71.0298C113.428 71.4754 113.193 71.6398 113.264 71.9679C113.357 72.4607 113.685 72.437 114.318 72.3434C115.186 72.2025 119.803 70.1154 119.991 65.0967C120.272 58.6463 114.154 51.6104 103.302 51.6805ZM22.8572 78.8155C19.4116 82.5914 14.5596 84.022 12.497 82.8024C10.2702 81.5125 11.1372 75.9542 15.38 71.9438C17.9584 69.5047 21.3102 67.2532 23.5135 65.8695C24.0058 65.5646 24.7558 65.1192 25.6465 64.5796C25.7872 64.486 25.8809 64.4389 25.8809 64.4389C26.045 64.3451 26.2325 64.2278 26.42 64.1105C27.9905 69.833 26.4904 74.8519 22.8572 78.8155ZM48.0547 61.6714C46.8593 64.6031 44.3279 72.1314 42.8043 71.7093C41.4914 71.3575 40.6947 65.6584 42.5462 60.0297C43.4838 57.1917 45.4762 53.8147 46.6481 52.5011C48.547 50.3904 50.6094 49.6868 51.1253 50.5546C51.7348 51.6805 48.8048 59.8421 48.0547 61.6714ZM68.8456 71.6154C68.33 71.8737 67.8612 72.061 67.6502 71.9206C67.4861 71.8268 67.8609 71.475 67.8609 71.475C67.8609 71.475 70.4627 68.6841 71.4941 67.3942C72.08 66.6439 72.7832 65.7762 73.5333 64.7909V65.0723C73.5335 68.4493 70.2989 70.7008 68.8456 71.6154ZM84.878 67.9568C84.503 67.6754 84.5501 66.8076 85.8156 64.0871C86.3081 63.0083 87.433 61.2024 89.3784 59.4903C89.6128 60.1939 89.7537 60.8738 89.73 61.5073C89.7068 65.7288 86.7066 67.3001 84.878 67.9568Z" fill="url(#paint0_linear_67_31)"/>
<defs>
<linearGradient id="paint0_linear_67_31" x1="60" y1="0" x2="60" y2="90" gradientUnits="userSpaceOnUse">
<stop stop-color="#F9E650"/>
<stop offset="0.671875" stop-color="#F0C527"/>
<stop offset="1" stop-color="#E8A702"/>
</linearGradient>
</defs>
</svg>
