<svg width="1440" height="800" viewBox="0 0 1440 800" fill="none" xmlns="http://www.w3.org/2000/svg">
<g filter="url(#filter0_d_269_54)">
<path d="M1440 800V1880H0V800H77.8125V1755H155.625V1705.5H233.438V1789H311.25V1861.5H389.062V1705.5H466V1676H544.688V1789H622.5V1705.5H700.312V1752.5H778.125V1880H855.938V1824.5H933.5V1680H1011.56V1779.5H1089.38V1705.5H1167.19V1859H1245V1715H1311V1661.5H1373.5V1705.5V857L0 800H1440Z" fill="url(#paint0_linear_269_54)"/>
<path d="M0 0H65.5V692.5L1440 800H0V0Z" fill="url(#paint1_linear_269_54)"/>
<path d="M5.26568e-07 -1080H1440L65.5 -1039.5V0H0L5.26568e-07 -1080Z" fill="url(#paint2_linear_269_54)"/>
<path d="M1440 -1881L916 -1880.26V-1355.83L0 -1138.45L5.26568e-07 -1080H1440V-1881Z" fill="url(#paint3_linear_269_54)"/>
<path d="M916 -2788H1440V-1880H916V-2788Z" fill="url(#paint4_linear_269_54)"/>
</g>
<defs>
<filter id="filter0_d_269_54" x="-70" y="-2858" width="1580" height="4808" filterUnits="userSpaceOnUse" color-interpolation-filters="sRGB">
<feFlood flood-opacity="0" result="BackgroundImageFix"/>
<feColorMatrix in="SourceAlpha" type="matrix" values="0 0 0 0 0 0 0 0 0 0 0 0 0 0 0 0 0 0 127 0" result="hardAlpha"/>
<feOffset/>
<feGaussianBlur stdDeviation="35"/>
<feComposite in2="hardAlpha" operator="out"/>
<feColorMatrix type="matrix" values="0 0 0 0 0.92 0 0 0 0 0.77648 0 0 0 0 0.2024 0 0 0 1 0"/>
<feBlend mode="normal" in2="BackgroundImageFix" result="effect1_dropShadow_269_54"/>
<feBlend mode="normal" in="SourceGraphic" in2="effect1_dropShadow_269_54" result="shape"/>
</filter>
<linearGradient id="paint0_linear_269_54" x1="1342.5" y1="-2788" x2="1342.5" y2="1880" gradientUnits="userSpaceOnUse">
<stop stop-color="#F9E650"/>
<stop offset="0.734375" stop-color="#EBC634"/>
<stop offset="1" stop-color="#DEAD31"/>
</linearGradient>
<linearGradient id="paint1_linear_269_54" x1="149" y1="-2788" x2="149" y2="1880" gradientUnits="userSpaceOnUse">
<stop stop-color="#DEAD31"/>
<stop offset="0.359375" stop-color="#EBC634"/>
<stop offset="1" stop-color="#F9E650"/>
</linearGradient>
<linearGradient id="paint2_linear_269_54" x1="79.0538" y1="-2835.46" x2="79.0538" y2="1832.54" gradientUnits="userSpaceOnUse">
<stop stop-color="#F9E650"/>
<stop offset="0.552083" stop-color="#EBC634"/>
<stop offset="1" stop-color="#DEAD31"/>
</linearGradient>
<linearGradient id="paint3_linear_269_54" x1="-110" y1="-2869.89" x2="-110" y2="1785.17" gradientUnits="userSpaceOnUse">
<stop stop-color="#DEAD31"/>
<stop offset="0.489583" stop-color="#EBC634"/>
<stop offset="1" stop-color="#F9E650"/>
</linearGradient>
<linearGradient id="paint4_linear_269_54" x1="1178" y1="-2788" x2="1178" y2="-1880" gradientUnits="userSpaceOnUse">
<stop stop-color="#F9E650"/>
<stop offset="0.208333" stop-color="#EBC634"/>
<stop offset="0.536458" stop-color="#DEAD31"/>
</linearGradient>
</defs>
</svg>
