<svg width="67" height="67" viewBox="0 0 67 67" fill="none" xmlns="http://www.w3.org/2000/svg">
<path d="M0 10C0 4.47715 4.47715 0 10 0H57C62.5228 0 67 4.47715 67 10V57C67 62.5228 62.5228 67 57 67H10C4.47715 67 0 62.5228 0 57V10Z" fill="#1A1A1A"/>
<path d="M16.08 10.48C13.0005 10.48 10.48 13.0005 10.48 16.08V51.92C10.48 54.9995 13.0005 57.52 16.08 57.52H51.92C54.9995 57.52 57.52 54.9995 57.52 51.92V16.08C57.52 13.0005 54.9995 10.48 51.92 10.48H16.08ZM16.08 12.72H51.92C53.7887 12.72 55.28 14.2113 55.28 16.08V51.92C55.28 53.7887 53.7887 55.28 51.92 55.28H16.08C14.2113 55.28 12.72 53.7887 12.72 51.92V16.08C12.72 14.2113 14.2113 12.72 16.08 12.72ZM18.32 23.92C18.023 23.92 17.7381 24.038 17.5281 24.2481C17.318 24.4581 17.2 24.743 17.2 25.04V42.9622C17.2 43.2592 17.318 43.5441 17.5281 43.7541C17.7381 43.9641 18.023 44.0822 18.32 44.0822H26.8447C27.3066 44.0815 28.9269 44.0421 30.6028 43.2553C32.2787 42.4685 34 40.6991 34 37.8391C34 36.0247 33.4058 34.6584 32.6087 33.7594C32.2752 33.3831 31.9635 33.341 31.6112 33.1097C32.2852 32.3212 32.88 31.2542 32.88 29.52C32.88 26.8514 31.4184 25.1952 29.9159 24.5216C28.4135 23.8479 26.8685 23.92 26.4881 23.92H18.32ZM39.6 23.92C39.4516 23.9179 39.3042 23.9453 39.1665 24.0007C39.0288 24.056 38.9034 24.1382 38.7977 24.2424C38.692 24.3466 38.6081 24.4708 38.5508 24.6077C38.4935 24.7446 38.4641 24.8916 38.4641 25.04C38.4641 25.1884 38.4935 25.3354 38.5508 25.4723C38.6081 25.6092 38.692 25.7334 38.7977 25.8376C38.9034 25.9418 39.0288 26.024 39.1665 26.0793C39.3042 26.1347 39.4516 26.1621 39.6 26.16H46.32C46.4684 26.1621 46.6158 26.1347 46.7535 26.0793C46.8912 26.024 47.0166 25.9418 47.1223 25.8376C47.228 25.7334 47.3119 25.6092 47.3692 25.4723C47.4265 25.3354 47.456 25.1884 47.456 25.04C47.456 24.8916 47.4265 24.7446 47.3692 24.6077C47.3119 24.4708 47.228 24.3466 47.1223 24.2424C47.0166 24.1382 46.8912 24.056 46.7535 24.0007C46.6158 23.9453 46.4684 23.9179 46.32 23.92H39.6ZM19.44 26.16H26.4881C26.9948 26.16 28.0876 26.1559 28.9994 26.5647C29.9111 26.9735 30.64 27.5585 30.64 29.52C30.64 31.621 29.8304 32.0242 29.3494 32.2719C29.1545 32.3725 28.9935 32.5281 28.8863 32.7194C28.7791 32.9107 28.7304 33.1293 28.7462 33.348C28.7621 33.5667 28.8418 33.7759 28.9754 33.9498C29.1091 34.1236 29.2908 34.2544 29.4981 34.3259C29.9216 34.4711 30.4873 34.7418 30.9331 35.2447C31.379 35.7476 31.76 36.485 31.76 37.8391C31.76 39.8891 30.8162 40.6806 29.6512 41.2275C28.4863 41.7744 27.0907 41.8418 26.8425 41.8422H19.44V26.16ZM42.96 27.28C41.9381 27.28 40.0675 27.483 38.3269 28.6778C36.5862 29.8726 35.12 32.1401 35.12 35.68C35.12 38.9766 36.4739 41.2175 38.1759 42.4766C39.878 43.7357 41.8072 44.08 43.1503 44.08C45.9942 44.08 48.005 43.1134 49.2097 41.7394C50.3223 40.4703 50.6907 38.9731 50.7475 37.6925C50.778 37.5976 50.7956 37.499 50.8 37.3994C50.8003 37.3897 50.7975 37.3784 50.7978 37.3688C50.7979 37.366 50.8 37.3627 50.8 37.36C50.7997 37.3227 50.7975 37.2855 50.7934 37.2484V37.2441C50.8544 35.2198 50.6976 32.8804 49.6166 30.8784C48.5092 28.8277 46.2826 27.28 42.96 27.28ZM22.8 28.4V31.76H25.7334C26.1333 31.76 27.4659 31.5075 27.4659 30.0078C27.4659 28.507 25.732 28.4 25.4666 28.4H22.8ZM42.96 29.52C45.6574 29.52 46.8608 30.4923 47.6434 31.9416C48.2774 33.1155 48.4701 34.6925 48.5075 36.24H40.72C40.423 36.24 40.1381 36.358 39.9281 36.5681C39.718 36.7781 39.6 37.063 39.6 37.36C39.6 37.36 39.6096 37.6427 39.6919 37.8894C39.7741 38.136 39.9361 38.4399 40.2081 38.7119C40.7521 39.2559 41.6533 39.6 42.96 39.6C44.2667 39.6 45.1679 39.2559 45.7119 38.7119C45.7887 38.635 45.7985 38.5599 45.8584 38.48H48.3828C48.2337 39.1013 47.994 39.726 47.5253 40.2606C46.766 41.1266 45.5122 41.84 43.1503 41.84C42.2221 41.84 40.6929 41.5527 39.5081 40.6763C38.3234 39.7998 37.36 38.4011 37.36 35.68C37.36 32.716 38.4021 31.3433 39.5956 30.5241C40.7891 29.7048 42.2783 29.52 42.96 29.52ZM43.0563 31.3137C42.3943 31.3137 41.9189 31.3983 41.5403 31.5719C41.1618 31.7444 40.8798 32.0055 40.5953 32.2653C40.406 32.5252 40.2158 32.7866 40.1206 33.1338C40.0254 33.3936 39.9314 33.6539 39.9325 34.0022H45.9897C45.8945 33.1342 45.6103 32.4406 45.1366 32.0072C44.6639 31.5737 44.0026 31.3137 43.0563 31.3137ZM22.8372 35.12V39.5781H26.1184C26.4029 39.5781 28.4 39.4683 28.4 37.4322C28.4 35.3938 26.8308 35.12 26.1184 35.12H22.8372Z" fill="white"/>
</svg>
