<svg width="67" height="67" viewBox="0 0 67 67" fill="none" xmlns="http://www.w3.org/2000/svg">
<rect width="67" height="67" rx="5" fill="#0F0F0F"/>
<path d="M15.08 10.48C12.0005 10.48 9.47998 13.0005 9.47998 16.08V51.92C9.47998 54.9994 12.0005 57.52 15.08 57.52H50.92C53.9994 57.52 56.52 54.9994 56.52 51.92V16.08C56.52 13.0005 53.9994 10.48 50.92 10.48H15.08ZM15.08 12.72H50.92C52.7887 12.72 54.28 14.2113 54.28 16.08V51.92C54.28 53.7887 52.7887 55.28 50.92 55.28H15.08C13.2113 55.28 11.72 53.7887 11.72 51.92V16.08C11.72 14.2113 13.2113 12.72 15.08 12.72ZM17.32 23.92C17.0229 23.92 16.7381 24.038 16.5281 24.2481C16.318 24.4581 16.2 24.7429 16.2 25.04V42.9622C16.2 43.2592 16.318 43.5441 16.5281 43.7541C16.7381 43.9641 17.0229 44.0821 17.32 44.0822H25.8425H25.8447C26.3066 44.0814 27.9269 44.0421 29.6028 43.2553C31.2787 42.4685 33 40.6991 33 37.839C33 36.0247 32.4058 34.6584 31.6087 33.7594C31.2752 33.3831 30.9635 33.3409 30.6112 33.1097C31.2852 32.3212 31.88 31.2542 31.88 29.52C31.88 26.8514 30.4183 25.1952 28.9159 24.5215C27.4135 23.8479 25.8685 23.92 25.4881 23.92H17.32ZM38.6 23.92C38.4516 23.9179 38.3042 23.9453 38.1665 24.0006C38.0288 24.056 37.9034 24.1382 37.7977 24.2424C37.692 24.3466 37.6081 24.4707 37.5508 24.6077C37.4935 24.7446 37.464 24.8916 37.464 25.04C37.464 25.1884 37.4935 25.3354 37.5508 25.4723C37.6081 25.6092 37.692 25.7334 37.7977 25.8376C37.9034 25.9418 38.0288 26.024 38.1665 26.0793C38.3042 26.1347 38.4516 26.1621 38.6 26.16H45.32C45.4684 26.1621 45.6157 26.1347 45.7535 26.0793C45.8912 26.024 46.0165 25.9418 46.1222 25.8376C46.2279 25.7334 46.3119 25.6092 46.3691 25.4723C46.4264 25.3354 46.4559 25.1884 46.4559 25.04C46.4559 24.8916 46.4264 24.7446 46.3691 24.6077C46.3119 24.4707 46.2279 24.3466 46.1222 24.2424C46.0165 24.1382 45.8912 24.056 45.7535 24.0006C45.6157 23.9453 45.4684 23.9179 45.32 23.92H38.6ZM18.44 26.16H25.4881C25.9948 26.16 27.0876 26.1558 27.9994 26.5647C28.9111 26.9735 29.64 27.5585 29.64 29.52C29.64 31.621 28.8303 32.0241 28.3494 32.2719C28.1545 32.3725 27.9935 32.5281 27.8863 32.7194C27.7791 32.9107 27.7304 33.1292 27.7462 33.348C27.7621 33.5667 27.8417 33.7759 27.9754 33.9498C28.1091 34.1236 28.2908 34.2544 28.4981 34.3259C28.9216 34.4711 29.4872 34.7417 29.9331 35.2447C30.379 35.7476 30.76 36.485 30.76 37.839C30.76 39.8891 29.8162 40.6806 28.6512 41.2275C27.4863 41.7744 26.0906 41.8418 25.8425 41.8422H18.44V26.16ZM41.96 27.28C40.9381 27.28 39.0675 27.483 37.3269 28.6778C35.5862 29.8726 34.12 32.1401 34.12 35.68C34.12 38.9766 35.4739 41.2174 37.1759 42.4765C38.878 43.7357 40.8071 44.08 42.1503 44.08C44.9941 44.08 47.005 43.1134 48.2097 41.7394C49.3223 40.4703 49.6906 38.9731 49.7475 37.6925C49.7779 37.5975 49.7956 37.499 49.8 37.3994C49.8003 37.3897 49.7975 37.3784 49.7978 37.3687C49.7978 37.366 49.8 37.3627 49.8 37.36C49.7997 37.3227 49.7975 37.2855 49.7934 37.2484V37.244C49.8544 35.2198 49.6976 32.8804 48.6165 30.8784C47.5092 28.8277 45.2825 27.28 41.96 27.28ZM21.8 28.4V31.76H24.7334C25.1333 31.76 26.4659 31.5075 26.4659 30.0078C26.4659 28.507 24.732 28.4 24.4665 28.4H21.8ZM41.96 29.52C44.6574 29.52 45.8608 30.4923 46.6434 31.9415C47.2773 33.1155 47.4701 34.6925 47.5075 36.24H44.2H39.72C39.4229 36.24 39.1381 36.358 38.9281 36.5681C38.718 36.7781 38.6 37.0629 38.6 37.36C38.6 37.36 38.6096 37.6427 38.6919 37.8894C38.7741 38.136 38.9361 38.4399 39.2081 38.7119C39.7521 39.2558 40.6533 39.6 41.96 39.6C43.2666 39.6 44.1679 39.2558 44.7119 38.7119C44.7887 38.635 44.7985 38.5599 44.8584 38.48H47.3828C47.2336 39.1013 46.994 39.726 46.5253 40.2606C45.766 41.1266 44.5122 41.84 42.1503 41.84C41.2221 41.84 39.6929 41.5527 38.5081 40.6762C37.3233 39.7998 36.36 38.4011 36.36 35.68C36.36 32.716 37.4021 31.3433 38.5956 30.524C39.7891 29.7048 41.2783 29.52 41.96 29.52ZM42.0562 31.3137C41.3943 31.3137 40.9189 31.3983 40.5403 31.5719C40.1617 31.7443 39.8798 32.0055 39.5953 32.2653C39.406 32.5251 39.2158 32.7865 39.1206 33.1337C39.0254 33.3936 38.9314 33.6538 38.9325 34.0022H44.9897C44.8945 33.1342 44.6103 32.4406 44.1365 32.0072C43.6639 31.5737 43.0026 31.3137 42.0562 31.3137ZM21.8372 35.12V39.5781H25.1184C25.4029 39.5781 27.4 39.4683 27.4 37.4322C27.4 35.3938 25.8307 35.12 25.1184 35.12H21.8372Z" fill="#F9E650"/>
</svg>
