<svg width="67" height="67" viewBox="0 0 67 67" fill="none" xmlns="http://www.w3.org/2000/svg">
<path d="M0 10C0 4.47715 4.47715 0 10 0H57C62.5228 0 67 4.47715 67 10V57C67 62.5228 62.5228 67 57 67H10C4.47715 67 0 62.5228 0 57V10Z" fill="#1A1A1A"/>
<path d="M34 8.625C21.0906 8.625 10.625 19.0906 10.625 32C10.625 44.9094 21.0906 55.375 34 55.375C46.9094 55.375 57.375 44.9094 57.375 32C57.375 19.0906 46.9094 8.625 34 8.625ZM34 12.875C44.5623 12.875 53.125 21.4377 53.125 32C53.125 40.7536 47.2374 48.1174 39.2108 50.3883C39.1122 50.1851 39.0446 49.9625 39.051 49.7097C39.084 48.4252 39.051 45.4274 39.051 44.3267C39.051 42.4375 37.8557 41.0977 37.8557 41.0977C37.8557 41.0977 47.2314 41.2035 47.2314 31.199C47.2314 27.3389 45.2144 25.3282 45.2144 25.3282C45.2144 25.3282 46.274 21.2074 44.847 19.4596C43.248 19.2864 40.3839 20.987 39.161 21.7817C39.161 21.7817 37.2236 20.9869 34 20.9869C30.7764 20.9869 28.839 21.7817 28.839 21.7817C27.6161 20.987 24.752 19.2875 23.153 19.4596C21.7271 21.2074 22.7856 25.3282 22.7856 25.3282C22.7856 25.3282 20.7686 27.3368 20.7686 31.1969C20.7686 41.2014 30.1443 41.0977 30.1443 41.0977C30.1443 41.0977 29.0767 42.313 28.9697 44.0548C28.3432 44.2757 27.4891 44.5363 26.6746 44.5363C24.7089 44.5363 23.2156 42.627 22.6674 41.743C22.1276 40.8707 21.021 40.1389 19.9883 40.1389C19.3083 40.1389 18.9756 40.4805 18.9756 40.8694C18.9756 41.2583 19.93 41.529 20.559 42.2494C21.885 43.7688 21.8604 47.1863 26.5853 47.1863C27.144 47.1863 28.1478 47.0576 28.949 46.9476C28.9445 48.0203 28.9321 49.049 28.949 49.7076C28.9552 49.9613 28.8863 50.1846 28.7871 50.3883C20.7615 48.1168 14.875 40.7529 14.875 32C14.875 21.4377 23.4377 12.875 34 12.875Z" fill="white"/>
</svg>
