<svg width="67" height="67" viewBox="0 0 67 67" fill="none" xmlns="http://www.w3.org/2000/svg">
<path d="M0 10C0 4.47715 4.47715 0 10 0H57C62.5228 0 67 4.47715 67 10V57C67 62.5228 62.5228 67 57 67H10C4.47715 67 0 62.5228 0 57V10Z" fill="#1A1A1A"/>
<path d="M17.8102 13.439C15.0233 13.439 13 15.3614 13 18.0083C13 20.6543 14.9831 22.5749 17.7139 22.5749C19.1305 22.5749 20.3509 22.1155 21.2439 21.2466C22.1003 20.4125 22.5722 19.2626 22.5713 17.9878C22.5089 15.3097 20.5507 13.439 17.8102 13.439ZM20.0003 19.9682C19.4472 20.5062 18.6559 20.7907 17.7139 20.7907C15.9894 20.7907 14.7842 19.6471 14.7842 18.0083C14.7842 16.3427 16.0001 15.2232 17.8102 15.2232C19.5792 15.2232 20.7479 16.3249 20.788 18.0092C20.7871 18.7782 20.5079 19.4731 20.0003 19.9682Z" fill="white"/>
<path d="M13.8555 53.5611H21.8737V24.0816H13.8555V53.5611ZM15.6397 25.8658H20.0895V51.776H15.6397V25.8658Z" fill="white"/>
<path d="M43.0174 24.0816C39.2991 24.0816 37.0225 25.3654 35.7039 26.5724L35.4533 24.0816H26.3815V53.5602H35.2659V38.0671C35.2659 37.3998 35.5362 36.0144 35.7057 35.6486C36.7789 33.3372 38.2268 33.3372 40.4196 33.3372C42.9451 33.3372 45.079 35.7057 45.079 38.5087V53.562H54V36.9065C54 28.0943 48.3066 24.0816 43.0174 24.0816ZM52.2158 51.7769H46.8632V38.5078C46.8632 34.7369 43.9121 31.5521 40.4196 31.5521C38.1786 31.5521 35.6397 31.5521 34.0866 34.8975C33.7663 35.5888 33.4808 37.2455 33.4808 38.0671V51.7769H28.1657V25.8658H33.8394L34.2034 29.4735H35.6656L35.927 29.0515C36.522 28.0934 38.4034 25.865 43.0174 25.865C47.4475 25.865 52.2158 29.3192 52.2158 36.9038V51.7769Z" fill="white"/>
</svg>
