<svg width="67" height="67" viewBox="0 0 67 67" fill="none" xmlns="http://www.w3.org/2000/svg">
<rect width="67" height="67" rx="5" fill="#0F0F0F"/>
<g clip-path="url(#clip0_49_75)">
<path d="M17.8102 13.439C15.0233 13.439 13 15.3614 13 18.0083C13 20.6543 14.9831 22.575 17.7139 22.575C19.1305 22.575 20.3509 22.1155 21.2439 21.2466C22.1003 20.4125 22.5722 19.2626 22.5713 17.9878C22.5089 15.3097 20.5507 13.439 17.8102 13.439ZM20.0003 19.9682C19.4472 20.5062 18.6559 20.7908 17.7139 20.7908C15.9894 20.7908 14.7842 19.6471 14.7842 18.0083C14.7842 16.3427 16.0001 15.2232 17.8102 15.2232C19.5792 15.2232 20.7479 16.3249 20.788 18.0092C20.7871 18.7782 20.5079 19.4731 20.0003 19.9682Z" fill="#F9E650"/>
<path d="M13.8555 53.561H21.8737V24.0815H13.8555V53.561ZM15.6397 25.8657H20.0895V51.7759H15.6397V25.8657Z" fill="#F9E650"/>
<path d="M43.0173 24.0815C39.2991 24.0815 37.0224 25.3653 35.7039 26.5723L35.4532 24.0815H26.3815V53.5601H35.2659V38.067C35.2659 37.3997 35.5362 36.0143 35.7057 35.6485C36.7789 33.3371 38.2268 33.3371 40.4195 33.3371C42.9451 33.3371 45.079 35.7056 45.079 38.5086V53.5619H54V36.9064C54 28.0942 48.3066 24.0815 43.0173 24.0815ZM52.2158 51.7768H46.8632V38.5077C46.8632 34.7368 43.9121 31.552 40.4195 31.552C38.1786 31.552 35.6397 31.552 34.0865 34.8974C33.7663 35.5887 33.4808 37.2454 33.4808 38.067V51.7768H28.1657V25.8657H33.8394L34.2034 29.4734H35.6655L35.9269 29.0514C36.522 28.0933 38.4034 25.8648 43.0173 25.8648C47.4475 25.8648 52.2158 29.3191 52.2158 36.9037V51.7768V51.7768Z" fill="#F9E650"/>
</g>
<defs>
<clipPath id="clip0_49_75">
<rect width="41" height="41" fill="white" transform="translate(13 13)"/>
</clipPath>
</defs>
</svg>
